<?xml version="1.0" standalone="no"?>
<!DOCTYPE svg PUBLIC "-//W3C//DTD SVG 20010904//EN"
 "http://www.w3.org/TR/2001/REC-SVG-20010904/DTD/svg10.dtd">
<svg xmlns="http://www.w3.org/2000/svg"
     width="512.000000pt" height="512.000000pt" viewBox="0 0 512.000000 512.000000"
     preserveAspectRatio="xMidYMid meet">
<metadata>
Created by potrace 1.11, written by Peter Selinger 2001-2013
</metadata>
<g transform="translate(0.000000,512.000000) scale(0.100000,-0.100000)"
fill="#000000" stroke="none">
<path d="M313 5110 c-54 -13 -137 -58 -180 -97 -53 -49 -87 -103 -113 -177
-20 -59 -20 -68 -18 -2295 l3 -2236 33 -67 c55 -113 143 -188 261 -222 49 -14
279 -16 2261 -16 2418 0 2253 -4 2360 57 54 31 124 103 150 152 53 106 50 -44
48 2376 l-3 2230 -34 69 c-43 89 -113 159 -199 199 l-67 32 -2235 2 c-1229 0
-2249 -2 -2267 -7z m1721 -1252 c8 -29 13 -55 10 -60 -3 -4 -1 -8 4 -8 5 0 9
-6 10 -12 0 -7 10 -44 20 -83 11 -38 27 -96 36 -127 9 -32 23 -84 32 -115 17
-64 72 -269 78 -293 4 -15 32 -116 67 -240 10 -36 41 -150 69 -255 29 -104 54
-199 57 -210 3 -11 6 -32 7 -47 0 -14 4 -24 9 -21 4 2 7 -2 8 -9 1 -19 15 -71
79 -298 5 -19 16 -57 23 -84 l14 -50 13 50 c7 27 14 51 15 54 1 3 5 19 10 35
4 17 23 86 42 155 19 69 43 159 54 200 11 41 32 116 46 165 14 50 27 97 29
105 4 17 2 10 190 697 74 270 134 494 134 497 0 3 164 6 365 6 l365 0 -11 -27
c-6 -16 -12 -35 -14 -43 -2 -8 -110 -330 -240 -715 -130 -385 -246 -729 -257
-765 -12 -36 -25 -67 -30 -68 -4 -2 -6 -7 -4 -11 3 -4 -75 -246 -173 -537
l-178 -529 -356 -2 -356 -2 -121 365 c-67 200 -118 370 -114 376 4 7 3 9 -2 5
-5 -5 -63 155 -131 360 -68 202 -164 492 -215 643 -50 151 -90 275 -88 275 2
0 -2 10 -9 23 -7 13 -14 31 -17 40 -2 9 -42 132 -90 272 -47 140 -91 274 -98
297 l-14 41 359 1 358 0 15 -51z"/>
</g>
</svg>
